<svg width="173" height="203" viewBox="0 0 173 203" fill="none" xmlns="http://www.w3.org/2000/svg">
<g filter="url(#filter0_d_359_191)">
<mask id="path-1-outside-1_359_191" maskUnits="userSpaceOnUse" x="2" y="-1" width="169" height="198" fill="black">
<rect fill="white" x="2" y="-1" width="169" height="198"/>
<path d="M27.3094 14.7C41.1094 4.89999 62.5094 1.19999 91.5094 3.59999C120.509 5.99999 144.509 13.1 163.509 24.9L153.009 77.1H144.909C145.309 56.3 141.509 40.9 133.509 30.9C125.509 20.7 115.909 15.5 104.709 15.3C94.5094 15.3 87.7094 18.1 84.3094 23.7C80.9094 29.1 82.7094 34.5 89.7094 39.9C95.3094 44.3 102.009 49.7 109.809 56.1C117.809 62.3 124.509 67.7 129.909 72.3C135.509 76.9 138.709 79.5 139.509 80.1C149.309 87.3 156.509 96 161.109 106.2C165.909 116.4 167.909 126.5 167.109 136.5C166.309 146.5 162.609 156 156.009 165C149.609 173.8 140.809 180.5 129.609 185.1C113.609 191.5 95.6094 194.2 75.6094 193.2C55.8094 192.2 39.9094 187.9 27.9094 180.3C19.9094 175.3 14.0094 168.4 10.2094 159.6C6.60938 150.8 5.30938 142.2 6.30938 133.8C7.30938 125.4 11.1094 118.1 17.7094 111.9C24.5094 105.7 33.4094 102.5 44.4094 102.3C51.6094 102.3 57.9094 104.1 63.3094 107.7C68.7094 111.1 72.7094 115.7 75.3094 121.5C77.9094 126.5 79.2094 131.8 79.2094 137.4C79.2094 146.8 75.8094 154.9 69.0094 161.7C62.4094 168.5 54.3094 171.9 44.7094 171.9C43.7094 171.9 42.6094 171.8 41.4094 171.6C44.6094 177.6 49.4094 181.4 55.8094 183C62.4094 184.6 69.2094 184.4 76.2094 182.4C83.4094 180.2 89.5094 176.2 94.5094 170.4C99.7094 164.6 102.309 157.9 102.309 150.3C102.309 144.9 101.109 139.6 98.7094 134.4C96.3094 129 93.5094 124.4 90.3094 120.6C87.3094 116.8 82.7094 112.6 76.5094 108C70.3094 103.2 65.3094 99.6 61.5094 97.2C57.7094 94.8 52.1094 91.3 44.7094 86.7C44.1094 86.5 43.6094 86.3 43.2094 86.1C42.8094 85.7 42.3094 85.4 41.7094 85.2C41.3094 84.8 40.8094 84.5 40.2094 84.3C32.8094 79.7 26.7094 75.3 21.9094 71.1C17.3094 66.7 14.0094 61.7 12.0094 56.1C9.40938 49.9 9.30938 42.9 11.7094 35.1C14.3094 27.1 19.5094 20.3 27.3094 14.7Z"/>
</mask>
<path d="M27.3094 14.7C41.1094 4.89999 62.5094 1.19999 91.5094 3.59999C120.509 5.99999 144.509 13.1 163.509 24.9L153.009 77.1H144.909C145.309 56.3 141.509 40.9 133.509 30.9C125.509 20.7 115.909 15.5 104.709 15.3C94.5094 15.3 87.7094 18.1 84.3094 23.7C80.9094 29.1 82.7094 34.5 89.7094 39.9C95.3094 44.3 102.009 49.7 109.809 56.1C117.809 62.3 124.509 67.7 129.909 72.3C135.509 76.9 138.709 79.5 139.509 80.1C149.309 87.3 156.509 96 161.109 106.2C165.909 116.4 167.909 126.5 167.109 136.5C166.309 146.5 162.609 156 156.009 165C149.609 173.8 140.809 180.5 129.609 185.1C113.609 191.5 95.6094 194.2 75.6094 193.2C55.8094 192.2 39.9094 187.9 27.9094 180.3C19.9094 175.3 14.0094 168.4 10.2094 159.6C6.60938 150.8 5.30938 142.2 6.30938 133.8C7.30938 125.4 11.1094 118.1 17.7094 111.9C24.5094 105.7 33.4094 102.5 44.4094 102.3C51.6094 102.3 57.9094 104.1 63.3094 107.7C68.7094 111.1 72.7094 115.7 75.3094 121.5C77.9094 126.5 79.2094 131.8 79.2094 137.4C79.2094 146.8 75.8094 154.9 69.0094 161.7C62.4094 168.5 54.3094 171.9 44.7094 171.9C43.7094 171.9 42.6094 171.8 41.4094 171.6C44.6094 177.6 49.4094 181.4 55.8094 183C62.4094 184.6 69.2094 184.4 76.2094 182.4C83.4094 180.2 89.5094 176.2 94.5094 170.4C99.7094 164.6 102.309 157.9 102.309 150.3C102.309 144.9 101.109 139.6 98.7094 134.4C96.3094 129 93.5094 124.4 90.3094 120.6C87.3094 116.8 82.7094 112.6 76.5094 108C70.3094 103.2 65.3094 99.6 61.5094 97.2C57.7094 94.8 52.1094 91.3 44.7094 86.7C44.1094 86.5 43.6094 86.3 43.2094 86.1C42.8094 85.7 42.3094 85.4 41.7094 85.2C41.3094 84.8 40.8094 84.5 40.2094 84.3C32.8094 79.7 26.7094 75.3 21.9094 71.1C17.3094 66.7 14.0094 61.7 12.0094 56.1C9.40938 49.9 9.30938 42.9 11.7094 35.1C14.3094 27.1 19.5094 20.3 27.3094 14.7Z" fill="#2565ED"/>
<path d="M27.3094 14.7L25.5724 12.254L25.5661 12.2585L25.5598 12.263L27.3094 14.7ZM91.5094 3.59998L91.7568 0.610207H91.7568L91.5094 3.59998ZM163.509 24.9L166.45 25.4916L166.861 23.4501L165.092 22.3515L163.509 24.9ZM153.009 77.1V80.1H155.466L155.95 77.6916L153.009 77.1ZM144.909 77.1L141.91 77.0423L141.851 80.1H144.909V77.1ZM133.509 30.9L131.149 32.7514L131.158 32.7628L131.167 32.7741L133.509 30.9ZM104.709 15.3L104.763 12.3005L104.736 12.3H104.709V15.3ZM84.3094 23.7L86.8481 25.2984L86.8611 25.2778L86.8737 25.2569L84.3094 23.7ZM89.7094 39.9L91.5629 37.541L91.5524 37.5328L91.5418 37.5246L89.7094 39.9ZM109.809 56.1L107.906 58.4192L107.939 58.4457L107.972 58.4712L109.809 56.1ZM129.909 72.3L127.964 74.5837L127.984 74.6011L128.005 74.6182L129.909 72.3ZM139.509 80.1L137.709 82.5L137.721 82.5089L137.733 82.5176L139.509 80.1ZM161.109 106.2L158.375 107.433L158.385 107.455L158.395 107.477L161.109 106.2ZM167.109 136.5L164.119 136.261V136.261L167.109 136.5ZM156.009 165L153.59 163.226L153.583 163.235L156.009 165ZM129.609 185.1L130.724 187.885L130.736 187.88L130.749 187.875L129.609 185.1ZM75.6094 193.2L75.4581 196.196L75.4596 196.196L75.6094 193.2ZM27.9094 180.3L29.5145 177.766L29.507 177.761L29.4994 177.756L27.9094 180.3ZM10.2094 159.6L7.43273 160.736L7.4437 160.763L7.45518 160.789L10.2094 159.6ZM6.30937 133.8L3.33041 133.445L6.30937 133.8ZM17.7094 111.9L15.6881 109.683L15.6716 109.698L15.6553 109.713L17.7094 111.9ZM44.4094 102.3V99.3H44.3821L44.3548 99.3005L44.4094 102.3ZM63.3094 107.7L61.6453 110.196L61.6778 110.218L61.7109 110.239L63.3094 107.7ZM75.3094 121.5L72.5719 122.727L72.6075 122.807L72.6477 122.884L75.3094 121.5ZM69.0094 161.7L66.8881 159.579L66.8722 159.595L66.8566 159.611L69.0094 161.7ZM41.4094 171.6L41.9026 168.641L35.8973 167.64L38.7623 173.012L41.4094 171.6ZM55.8094 183L55.0818 185.91L55.0922 185.913L55.1026 185.916L55.8094 183ZM76.2094 182.4L77.0335 185.285L77.0599 185.277L77.086 185.269L76.2094 182.4ZM94.5094 170.4L92.2757 168.397L92.2562 168.419L92.2372 168.441L94.5094 170.4ZM98.7094 134.4L95.9679 135.618L95.9766 135.638L95.9855 135.657L98.7094 134.4ZM90.3094 120.6L87.9547 122.459L87.9841 122.496L88.0146 122.532L90.3094 120.6ZM76.5094 108L74.6729 110.372L74.6972 110.391L74.7218 110.409L76.5094 108ZM61.5094 97.2L59.9074 99.7365H59.9074L61.5094 97.2ZM44.7094 86.7L46.2932 84.1521L45.9932 83.9657L45.6581 83.854L44.7094 86.7ZM43.2094 86.1L41.088 88.2213L41.4323 88.5656L41.8678 88.7833L43.2094 86.1ZM41.7094 85.2L39.5881 87.3213L40.0888 87.8221L40.7607 88.0461L41.7094 85.2ZM40.2094 84.3L38.6256 86.8479L38.9256 87.0343L39.2607 87.146L40.2094 84.3ZM21.9094 71.1L19.8357 73.2679L19.8838 73.3139L19.9339 73.3577L21.9094 71.1ZM12.0094 56.1L14.8346 55.091L14.8073 55.0146L14.776 54.9398L12.0094 56.1ZM11.7094 35.1L8.85627 34.1727L8.84898 34.1952L8.84204 34.2177L11.7094 35.1ZM29.0464 17.146C41.98 7.96121 62.5052 4.2099 91.2619 6.58976L91.7568 0.610207C62.5136 -1.80991 40.2387 1.83878 25.5724 12.254L29.0464 17.146ZM91.2619 6.58976C119.926 8.96196 143.433 15.9633 161.927 27.4485L165.092 22.3515C145.585 10.2367 121.093 3.03802 91.7568 0.610207L91.2619 6.58976ZM160.568 24.3084L150.068 76.5084L155.95 77.6916L166.45 25.4916L160.568 24.3084ZM153.009 74.1H144.909V80.1H153.009V74.1ZM147.909 77.1577C148.314 56.0647 144.491 39.8242 135.852 29.0259L131.167 32.7741C138.528 41.9757 142.304 56.5353 141.91 77.0423L147.909 77.1577ZM135.87 29.0486C127.411 18.2634 117.013 12.5192 104.763 12.3005L104.656 18.2995C114.805 18.4808 123.608 23.1366 131.149 32.7514L135.87 29.0486ZM104.709 12.3C94.0802 12.3 85.9474 15.2215 81.745 22.1431L86.8737 25.2569C89.4714 20.9784 94.9386 18.3 104.709 18.3V12.3ZM81.7707 22.1016C79.6575 25.4578 79.0426 29.0864 80.2633 32.7487C81.4297 36.2477 84.1467 39.3977 87.877 42.2753L91.5418 37.5246C88.272 35.0023 86.5891 32.7523 85.9554 30.8513C85.3762 29.1136 85.5613 27.3422 86.8481 25.2984L81.7707 22.1016ZM87.8559 42.2589C93.434 46.6418 100.117 52.0276 107.906 58.4192L111.712 53.7808C103.902 47.3724 97.1847 41.9582 91.5629 37.541L87.8559 42.2589ZM107.972 58.4712C115.949 64.6537 122.611 70.0234 127.964 74.5837L131.855 70.0163C126.408 65.3766 119.67 59.9462 111.647 53.7288L107.972 58.4712ZM128.005 74.6182C133.568 79.1876 136.841 81.8485 137.709 82.5L141.309 77.7C140.578 77.1514 137.451 74.6124 131.814 69.9818L128.005 74.6182ZM137.733 82.5176C147.154 89.4392 154.005 97.7443 158.375 107.433L163.844 104.967C159.014 94.2557 151.465 85.1608 141.286 77.6823L137.733 82.5176ZM158.395 107.477C163 117.264 164.872 126.844 164.119 136.261L170.1 136.739C170.946 126.156 168.818 115.536 163.824 104.923L158.395 107.477ZM164.119 136.261C163.368 145.645 159.899 154.623 153.59 163.226L158.429 166.774C165.32 157.377 169.251 147.355 170.1 136.739L164.119 136.261ZM153.583 163.235C147.546 171.536 139.215 177.912 128.47 182.325L130.749 187.875C142.404 183.088 151.673 176.064 158.436 166.765L153.583 163.235ZM128.495 182.315C112.956 188.53 95.3971 191.186 75.7592 190.204L75.4596 196.196C95.8217 197.214 114.262 194.47 130.724 187.885L128.495 182.315ZM75.7607 190.204C56.283 189.22 40.9387 185.001 29.5145 177.766L26.3042 182.834C38.88 190.799 55.3357 195.18 75.4581 196.196L75.7607 190.204ZM29.4994 177.756C22.0248 173.084 16.5262 166.661 12.9636 158.411L7.45518 160.789C11.4926 170.139 17.794 177.516 26.3194 182.844L29.4994 177.756ZM12.986 158.464C9.55461 150.076 8.35574 141.988 9.28834 134.155L3.33041 133.445C2.26301 142.412 3.66414 151.524 7.43273 160.736L12.986 158.464ZM9.28834 134.155C10.1988 126.506 13.6384 119.84 19.7634 114.087L15.6553 109.713C8.58035 116.36 4.41991 124.294 3.33041 133.445L9.28834 134.155ZM19.7306 114.117C25.8906 108.5 34.043 105.489 44.4639 105.299L44.3548 99.3005C32.7758 99.511 23.1281 102.9 15.6881 109.683L19.7306 114.117ZM44.4094 105.3C51.0844 105.3 56.7913 106.96 61.6453 110.196L64.9735 105.204C59.0275 101.24 52.1343 99.3 44.4094 99.3V105.3ZM61.7109 110.239C66.6123 113.325 70.2149 117.469 72.5719 122.727L78.0469 120.273C75.2038 113.931 70.8064 108.875 64.9078 105.161L61.7109 110.239ZM72.6477 122.884C75.0269 127.459 76.2094 132.285 76.2094 137.4H82.2094C82.2094 131.315 80.7919 125.541 77.971 120.116L72.6477 122.884ZM76.2094 137.4C76.2094 145.984 73.14 153.327 66.8881 159.579L71.1307 163.821C78.4788 156.473 82.2094 147.616 82.2094 137.4H76.2094ZM66.8566 159.611C60.8299 165.82 53.5102 168.9 44.7094 168.9V174.9C55.1086 174.9 63.9889 171.18 71.1621 163.789L66.8566 159.611ZM44.7094 168.9C43.9055 168.9 42.9732 168.819 41.9026 168.641L40.9162 174.559C42.2456 174.781 43.5133 174.9 44.7094 174.9V168.9ZM38.7623 173.012C42.3475 179.734 47.8305 184.098 55.0818 185.91L56.537 180.09C50.9883 178.702 46.8712 175.466 44.0564 170.188L38.7623 173.012ZM55.1026 185.916C62.2432 187.647 69.5716 187.417 77.0335 185.285L75.3852 179.515C68.8472 181.383 62.5755 181.553 56.5162 180.084L55.1026 185.916ZM77.086 185.269C84.8376 182.901 91.4184 178.58 96.7816 172.359L92.2372 168.441C87.6004 173.82 81.9812 177.499 75.3327 179.531L77.086 185.269ZM96.7431 172.403C102.423 166.067 105.309 158.659 105.309 150.3H99.3094C99.3094 157.141 96.9958 163.133 92.2757 168.397L96.7431 172.403ZM105.309 150.3C105.309 144.44 104.004 138.713 101.433 133.143L95.9855 135.657C98.2148 140.487 99.3094 145.36 99.3094 150.3H105.309ZM101.451 133.182C98.9572 127.571 96.0164 122.72 92.6041 118.668L88.0146 122.532C91.0024 126.08 93.6615 130.429 95.9679 135.618L101.451 133.182ZM92.664 118.741C89.4327 114.648 84.5995 110.267 78.2969 105.591L74.7218 110.409C80.8193 114.933 85.1861 118.952 87.9547 122.459L92.664 118.741ZM78.3459 105.628C72.117 100.805 67.03 97.1385 63.1114 94.6635L59.9074 99.7365C63.5887 102.062 68.5018 105.595 74.6729 110.372L78.3459 105.628ZM63.1114 94.6635C59.3021 92.2577 53.6948 88.7531 46.2932 84.1521L43.1256 89.2478C50.524 93.8469 56.1167 97.3423 59.9074 99.7365L63.1114 94.6635ZM45.6581 83.854C45.1424 83.6821 44.7841 83.5332 44.551 83.4167L41.8678 88.7833C42.4347 89.0668 43.0764 89.3179 43.7607 89.546L45.6581 83.854ZM45.3307 83.9787C44.5642 83.2122 43.6472 82.6837 42.6581 82.3539L40.7607 88.0461C40.9716 88.1163 41.0545 88.1878 41.088 88.2213L45.3307 83.9787ZM43.8307 83.0787C43.0642 82.3122 42.1472 81.7837 41.1581 81.4539L39.2607 87.146C39.4716 87.2163 39.5545 87.2878 39.5881 87.3213L43.8307 83.0787ZM41.7932 81.7521C34.4851 77.2093 28.5273 72.9043 23.8849 68.8423L19.9339 73.3577C24.8915 77.6956 31.1337 82.1907 38.6256 86.8479L41.7932 81.7521ZM23.983 68.9321C19.696 64.8314 16.6667 60.2208 14.8346 55.091L9.18415 57.109C11.3521 63.1792 14.9228 68.5686 19.8357 73.2679L23.983 68.9321ZM14.776 54.9398C12.5025 49.5185 12.3375 43.2598 14.5767 35.9822L8.84204 34.2177C6.2813 42.5401 6.31625 50.2815 9.24279 57.2602L14.776 54.9398ZM14.5625 36.0273C16.9376 28.7191 21.7017 22.4191 29.059 17.137L25.5598 12.263C17.317 18.1809 11.6811 25.4809 8.85627 34.1727L14.5625 36.0273Z" fill="black" mask="url(#path-1-outside-1_359_191)"/>
</g>
<defs>
<filter id="filter0_d_359_191" x="0.809387" y="0" width="171.5" height="202.7" filterUnits="userSpaceOnUse" color-interpolation-filters="sRGB">
<feFlood flood-opacity="0" result="BackgroundImageFix"/>
<feColorMatrix in="SourceAlpha" type="matrix" values="0 0 0 0 0 0 0 0 0 0 0 0 0 0 0 0 0 0 127 0" result="hardAlpha"/>
<feOffset dy="4"/>
<feGaussianBlur stdDeviation="2"/>
<feComposite in2="hardAlpha" operator="out"/>
<feColorMatrix type="matrix" values="0 0 0 0 0 0 0 0 0 0 0 0 0 0 0 0 0 0 0.25 0"/>
<feBlend mode="normal" in2="BackgroundImageFix" result="effect1_dropShadow_359_191"/>
<feBlend mode="normal" in="SourceGraphic" in2="effect1_dropShadow_359_191" result="shape"/>
</filter>
</defs>
</svg>
